<svg id="Capa_1" enable-background="new 0 0 512 512" height="512" viewBox="0 0 512 512" width="512" xmlns="http://www.w3.org/2000/svg"><g><path d="m226 421c90.981 0 165-74.019 165-165s-74.019-165-165-165-165 74.019-165 165 74.019 165 165 165zm0-300c74.439 0 135 60.561 135 135s-60.561 135-135 135-135-60.561-135-135 60.561-135 135-135z"/><path d="m137.231 234.812c7.657 3.243 16.443-.36 19.663-7.96 7.601-17.938 21.981-32.341 39.957-39.957 7.628-3.231 11.191-12.035 7.96-19.663-3.232-7.627-12.034-11.192-19.663-7.96-24.421 10.346-44.938 30.057-55.877 55.877-3.231 7.628.333 16.431 7.96 19.663z"/><path d="m247.188 344.768c3.222 7.603 12.011 11.201 19.663 7.96 25.106-10.636 45.217-30.715 55.877-55.877 3.231-7.628-.332-16.431-7.96-19.663-7.63-3.232-16.431.333-19.663 7.96-7.601 17.94-21.981 32.341-39.957 39.957-7.627 3.231-11.191 12.035-7.96 19.663z"/><path d="m181 256c0 24.813 20.187 45 45 45s45-20.187 45-45-20.187-45-45-45-45 20.187-45 45zm45-15c8.271 0 15 6.729 15 15s-6.729 15-15 15-15-6.729-15-15 6.729-15 15-15z"/><path d="m497 31h-482c-8.284 0-15 6.716-15 15v420c0 8.284 6.716 15 15 15h482c8.284 0 15-6.716 15-15v-150c0-8.284-6.716-15-15-15-24.813 0-45-20.187-45-45s20.187-45 45-45c8.284 0 15-6.716 15-15v-150c0-8.284-6.716-15-15-15zm-15 151.507c-34.19 6.969-60 37.274-60 73.493s25.81 66.524 60 73.493v121.507h-452v-390h452z"/></g></svg>