<svg id="Capa_1" enable-background="new 0 0 512 512" height="512" viewBox="0 0 512 512" width="512" xmlns="http://www.w3.org/2000/svg"><g><path d="m373.489 364.092c-33.088-8.34-58.832-15.08-68.237-45.384 28.32-15.106 48.943-42.807 54.344-75.577l18.809 10.859c7.15 4.128 16.335 1.708 20.49-5.49 4.142-7.174 1.684-16.348-5.49-20.49l-32.405-18.709v-28.301h45c8.284 0 15-6.716 15-15s-6.716-15-15-15h-46.076c-1.199-8.344-3.38-16.375-6.426-23.97l39.906-23.04c7.174-4.142 9.632-13.316 5.49-20.49-4.143-7.174-13.316-9.632-20.49-5.49l-39.943 23.061c-5.136-6.508-11.024-12.396-17.532-17.532l23.061-39.943c4.142-7.174 1.684-16.348-5.49-20.49-7.176-4.142-16.349-1.684-20.49 5.49l-23.04 39.906c-7.595-3.047-15.626-5.227-23.97-6.426v-47.076c0-8.284-6.716-15-15-15s-15 6.716-15 15v47.076c-8.344 1.199-16.375 3.38-23.97 6.426l-23.04-39.906c-4.143-7.174-13.315-9.633-20.49-5.49-7.174 4.142-9.632 13.316-5.49 20.49l23.061 39.943c-6.508 5.136-12.396 11.023-17.532 17.532l-39.943-23.061c-7.175-4.142-16.349-1.684-20.49 5.49-4.142 7.174-1.684 16.348 5.49 20.49l39.906 23.04c-3.047 7.595-5.227 15.625-6.426 23.97h-46.076c-8.284 0-15 6.716-15 15s6.716 15 15 15h45v28.301l-32.404 18.708c-7.174 4.142-9.632 13.316-5.49 20.49 4.163 7.21 13.35 9.613 20.49 5.49l18.809-10.859c5.401 32.77 26.024 60.471 54.344 75.577-9.567 30.827-36.562 37.4-68.237 45.384-47.9 12.075-107.512 27.1-107.512 132.909 0 8.284 6.716 15 15 15h420c8.284 0 15-6.716 15-15 0-105.809-59.612-120.834-107.511-132.908zm-192.489 38.087v58.181l-25.139-25.558zm30 33.78c12.544 9.438 28.129 15.041 45 15.041s32.456-5.603 45-15.041v46.041h-90zm120-33.78 25.139 32.623-25.139 25.557zm-75-311.179c22.3 0 42.345 9.794 56.095 25.293l-56.095 32.386-56.095-32.387c13.75-15.498 33.795-25.292 56.095-25.292zm-75 135v-60c0-8.298 1.375-16.276 3.874-23.744l63.626 36.734c4.641 2.679 10.359 2.679 15 0l63.626-36.734c2.5 7.468 3.874 15.446 3.874 23.744v60c0 41.355-33.645 75-75 75s-75-33.645-75-75zm75 105c7.206 0 14.244-.731 21.045-2.12 4.899 14.946 12.828 27.07 23.955 36.647v10.473c0 24.813-20.187 45-45 45s-45-20.187-45-45v-10.473c11.127-9.578 19.055-21.701 23.955-36.647 6.801 1.389 13.839 2.12 21.045 2.12zm-169.491 87.115c15.412-13.862 36.747-19.239 59.334-24.932 1.741-.439 3.489-.881 5.237-1.327l-26.962 34.988c-4.573 5.935-4.066 14.333 1.188 19.675l34.9 35.481h-98.722c2.003-29.609 10.244-50.591 25.025-63.885zm265.285 63.885 34.9-35.481c5.254-5.341 5.761-13.74 1.188-19.675l-26.962-34.988c1.749.446 3.496.888 5.238 1.327 22.588 5.693 43.923 11.071 59.334 24.932 14.781 13.294 23.021 34.276 25.025 63.885z"/></g></svg>